<svg xmlns="http://www.w3.org/2000/svg" viewBox="0 0 1200 750" role="img" aria-label="Old map with a frontier route">
  <rect width="1200" height="750" fill="#cdbf9f"/>
  <path d="M94 92h1012v566H94z" fill="#efe4c7" stroke="#15120f" stroke-width="18"/>
  <path d="M185 220c180-100 321 28 461-45 101-53 201-27 356 78M210 510c141-87 309-63 430-18 147 54 233 17 369-71" fill="none" stroke="#315c4d" stroke-width="28" opacity=".28"/>
  <path d="M238 563c65-124 155-194 270-211 133-19 218-89 256-210" fill="none" stroke="#b51f24" stroke-width="16" stroke-dasharray="34 30"/>
  <g fill="#15120f">
    <path d="m501 349 42-87 42 87 97 14-70 68 17 96-86-45-86 45 17-96-70-68Z"/>
    <circle cx="238" cy="563" r="24"/>
    <circle cx="764" cy="142" r="24"/>
  </g>
  <path d="M908 488h98v98h-98z" fill="#d4a72c" stroke="#15120f" stroke-width="12"/>
</svg>
