<svg xmlns="http://www.w3.org/2000/svg" viewBox="0 0 1400 820" role="img" aria-label="Campaign map with routes, settlements, and marked objectives">
  <rect width="1400" height="820" fill="#141d1d"/>
  <rect x="88" y="70" width="1224" height="680" fill="#d8c99f" stroke="#0b1011" stroke-width="24"/>
  <path d="M166 226c192-118 324-2 484-78 118-56 224-50 382 68 80 60 158 79 236 58" fill="none" stroke="#315c4d" stroke-width="34" opacity=".32"/>
  <path d="M202 576c128-96 298-101 510-12 186 78 329 10 502-98" fill="none" stroke="#315c4d" stroke-width="30" opacity=".24"/>
  <path d="M268 602c120-180 260-272 420-278 154-6 284-72 390-230" fill="none" stroke="#8d2b26" stroke-width="18" stroke-linecap="round" stroke-dasharray="38 32"/>
  <g fill="#0c1010">
    <circle cx="268" cy="602" r="26"/>
    <circle cx="688" cy="324" r="26"/>
    <circle cx="1078" cy="94" r="26"/>
    <path d="m686 318 50-96 46 98 108 16-78 76 18 108-96-51-96 51 18-108-78-76Z"/>
  </g>
  <g fill="#d5b76b" stroke="#0c1010" stroke-width="14">
    <rect x="246" y="176" width="104" height="104"/>
    <rect x="1036" y="578" width="112" height="112"/>
    <path d="M486 594h132v92H486z"/>
  </g>
  <path d="M150 124h220M150 168h152M150 212h108" stroke="#0c1010" stroke-width="12" opacity=".48"/>
</svg>
